<svg xmlns="http://www.w3.org/2000/svg" width="512" height="512" viewBox="0 0 512 512">
  <defs>
    <linearGradient id="bg" x1="0%" y1="0%" x2="100%" y2="100%">
      <stop offset="0%" style="stop-color:#1a1a2e"/>
      <stop offset="100%" style="stop-color:#16213e"/>
    </linearGradient>
  </defs>
  <rect width="512" height="512" rx="92" fill="url(#bg)"/>
  <circle cx="102" cy="77" r="4" fill="#e2d96f" opacity="0.8"/>
  <circle cx="384" cy="61" r="5" fill="#e2d96f" opacity="0.6"/>
  <circle cx="435" cy="179" r="3" fill="#e2d96f" opacity="0.7"/>
  <circle cx="77" cy="205" r="4" fill="#e2d96f" opacity="0.5"/>
  <circle cx="307" cy="128" r="3" fill="#e2d96f" opacity="0.9"/>
  <!-- Open book -->
  <g transform="translate(256,270)">
    <path d="M0,-20 Q-80,-40 -150,0 L-150,110 Q-80,85 0,95 Z" fill="#f8f0e3" stroke="#f0a500" stroke-width="5"/>
    <path d="M0,-20 Q80,-40 150,0 L150,110 Q80,85 0,95 Z" fill="#f8f0e3" stroke="#f0a500" stroke-width="5"/>
    <!-- Book lines -->
    <line x1="-120" y1="25" x2="-25" y2="20" stroke="#ccc" stroke-width="2"/>
    <line x1="-115" y1="45" x2="-30" y2="40" stroke="#ccc" stroke-width="2"/>
    <line x1="-110" y1="65" x2="-35" y2="60" stroke="#ccc" stroke-width="2"/>
    <line x1="25" y1="20" x2="120" y2="25" stroke="#ccc" stroke-width="2"/>
    <line x1="30" y1="40" x2="115" y2="45" stroke="#ccc" stroke-width="2"/>
    <line x1="35" y1="60" x2="110" y2="65" stroke="#ccc" stroke-width="2"/>
  </g>
  <!-- Sparkles -->
  <polygon points="180,180 185,192 198,195 188,202 190,215 180,208 170,215 172,202 162,195 175,192" fill="#f0a500"/>
  <polygon points="332,165 335,173 343,175 337,180 338,188 332,184 326,188 327,180 321,175 329,173" fill="#f0a500"/>
  <polygon points="230,145 233,153 241,155 235,160 236,168 230,164 224,168 225,160 219,155 227,153" fill="#f0a500"/>
  <!-- Text -->
  <text x="256" y="420" text-anchor="middle" fill="#f0a500" font-family="system-ui,sans-serif" font-weight="bold" font-size="40">IT'S</text>
  <text x="256" y="470" text-anchor="middle" fill="#f0a500" font-family="system-ui,sans-serif" font-weight="bold" font-size="50">STORY TIME</text>
</svg>
