<svg xmlns="http://www.w3.org/2000/svg" width="108" height="108" viewBox="0 0 512 512">
  <defs>
    <linearGradient id="bg" x1="0%" y1="0%" x2="100%" y2="100%">
      <stop offset="0%" style="stop-color:#1a1a2e"/>
      <stop offset="100%" style="stop-color:#16213e"/>
    </linearGradient>
  </defs>
  <rect width="512" height="512" rx="92" fill="url(#bg)"/>
  <circle cx="102" cy="77" r="6" fill="#e2d96f" opacity="0.8"/>
  <circle cx="384" cy="61" r="7" fill="#e2d96f" opacity="0.6"/>
  <circle cx="435" cy="179" r="5" fill="#e2d96f" opacity="0.7"/>
  <g transform="translate(256,260)">
    <path d="M0,-20 Q-80,-40 -150,0 L-150,110 Q-80,85 0,95 Z" fill="#f8f0e3" stroke="#f0a500" stroke-width="8"/>
    <path d="M0,-20 Q80,-40 150,0 L150,110 Q80,85 0,95 Z" fill="#f8f0e3" stroke="#f0a500" stroke-width="8"/>
  </g>
  <polygon points="180,180 185,195 200,198 188,207 191,222 180,213 169,222 172,207 160,198 175,195" fill="#f0a500"/>
  <polygon points="332,165 336,176 347,178 339,185 341,196 332,190 323,196 325,185 317,178 328,176" fill="#f0a500"/>
  <text x="256" y="420" text-anchor="middle" fill="#f0a500" font-family="sans-serif" font-weight="bold" font-size="42">IT'S</text>
  <text x="256" y="472" text-anchor="middle" fill="#f0a500" font-family="sans-serif" font-weight="bold" font-size="52">STORY TIME</text>
</svg>
